<svg id="visual" viewBox="0 0 960 150" width="960" height="150" xmlns="http://www.w3.org/2000/svg" xmlns:xlink="http://www.w3.org/1999/xlink" version="1.1"><rect x="0" y="0" width="960" height="150" fill="#ff4d69"></rect><path d="M0 90L22.8 89.8C45.7 89.7 91.3 89.3 137 89.2C182.7 89 228.3 89 274 89C319.7 89 365.3 89 411.2 91C457 93 503 97 548.8 99.3C594.7 101.7 640.3 102.3 686 100.2C731.7 98 777.3 93 823 92.3C868.7 91.7 914.3 95.3 937.2 97.2L960 99L960 151L937.2 151C914.3 151 868.7 151 823 151C777.3 151 731.7 151 686 151C640.3 151 594.7 151 548.8 151C503 151 457 151 411.2 151C365.3 151 319.7 151 274 151C228.3 151 182.7 151 137 151C91.3 151 45.7 151 22.8 151L0 151Z" fill="#ff4d69"></path><path d="M0 98L22.8 99.3C45.7 100.7 91.3 103.3 137 106.3C182.7 109.3 228.3 112.7 274 112.3C319.7 112 365.3 108 411.2 108C457 108 503 112 548.8 113.7C594.7 115.3 640.3 114.7 686 112.5C731.7 110.3 777.3 106.7 823 105.3C868.7 104 914.3 105 937.2 105.5L960 106L960 151L937.2 151C914.3 151 868.7 151 823 151C777.3 151 731.7 151 686 151C640.3 151 594.7 151 548.8 151C503 151 457 151 411.2 151C365.3 151 319.7 151 274 151C228.3 151 182.7 151 137 151C91.3 151 45.7 151 22.8 151L0 151Z" fill="#eb54a2"></path><path d="M0 117L22.8 116.3C45.7 115.7 91.3 114.3 137 113.2C182.7 112 228.3 111 274 110.3C319.7 109.7 365.3 109.3 411.2 109.2C457 109 503 109 548.8 110.8C594.7 112.7 640.3 116.3 686 118C731.7 119.7 777.3 119.3 823 120.3C868.7 121.3 914.3 123.7 937.2 124.8L960 126L960 151L937.2 151C914.3 151 868.7 151 823 151C777.3 151 731.7 151 686 151C640.3 151 594.7 151 548.8 151C503 151 457 151 411.2 151C365.3 151 319.7 151 274 151C228.3 151 182.7 151 137 151C91.3 151 45.7 151 22.8 151L0 151Z" fill="#bb6ccc"></path><path d="M0 122L22.8 122.2C45.7 122.3 91.3 122.7 137 122.3C182.7 122 228.3 121 274 122C319.7 123 365.3 126 411.2 128.3C457 130.7 503 132.3 548.8 131.2C594.7 130 640.3 126 686 125.5C731.7 125 777.3 128 823 128.5C868.7 129 914.3 127 937.2 126L960 125L960 151L937.2 151C914.3 151 868.7 151 823 151C777.3 151 731.7 151 686 151C640.3 151 594.7 151 548.8 151C503 151 457 151 411.2 151C365.3 151 319.7 151 274 151C228.3 151 182.7 151 137 151C91.3 151 45.7 151 22.8 151L0 151Z" fill="#7681de"></path><path d="M0 134L22.8 135.2C45.7 136.3 91.3 138.7 137 138.5C182.7 138.3 228.3 135.7 274 135.2C319.7 134.7 365.3 136.3 411.2 137C457 137.7 503 137.3 548.8 136.8C594.7 136.3 640.3 135.7 686 134.7C731.7 133.7 777.3 132.3 823 132.5C868.7 132.7 914.3 134.3 937.2 135.2L960 136L960 151L937.2 151C914.3 151 868.7 151 823 151C777.3 151 731.7 151 686 151C640.3 151 594.7 151 548.8 151C503 151 457 151 411.2 151C365.3 151 319.7 151 274 151C228.3 151 182.7 151 137 151C91.3 151 45.7 151 22.8 151L0 151Z" fill="#008dd6"></path></svg>