<svg id="visual" viewBox="0 0 960 300" width="960" height="300" xmlns="http://www.w3.org/2000/svg" xmlns:xlink="http://www.w3.org/1999/xlink" version="1.1"><rect x="0" y="0" width="960" height="300" fill="#000000"></rect><path d="M0 211L22.8 205.5C45.7 200 91.3 189 137 187.3C182.7 185.7 228.3 193.3 274 194.3C319.7 195.3 365.3 189.7 411.2 189.3C457 189 503 194 548.8 197C594.7 200 640.3 201 686 202.7C731.7 204.3 777.3 206.7 823 202.3C868.7 198 914.3 187 937.2 181.5L960 176L960 301L937.2 301C914.3 301 868.7 301 823 301C777.3 301 731.7 301 686 301C640.3 301 594.7 301 548.8 301C503 301 457 301 411.2 301C365.3 301 319.7 301 274 301C228.3 301 182.7 301 137 301C91.3 301 45.7 301 22.8 301L0 301Z" fill="#f30e81"></path><path d="M0 196L22.8 202.3C45.7 208.7 91.3 221.3 137 228.2C182.7 235 228.3 236 274 233.2C319.7 230.3 365.3 223.7 411.2 218.3C457 213 503 209 548.8 209.3C594.7 209.7 640.3 214.3 686 217.8C731.7 221.3 777.3 223.7 823 220.5C868.7 217.3 914.3 208.7 937.2 204.3L960 200L960 301L937.2 301C914.3 301 868.7 301 823 301C777.3 301 731.7 301 686 301C640.3 301 594.7 301 548.8 301C503 301 457 301 411.2 301C365.3 301 319.7 301 274 301C228.3 301 182.7 301 137 301C91.3 301 45.7 301 22.8 301L0 301Z" fill="#f7247a"></path><path d="M0 248L22.8 246.8C45.7 245.7 91.3 243.3 137 239.3C182.7 235.3 228.3 229.7 274 231.3C319.7 233 365.3 242 411.2 244.8C457 247.7 503 244.3 548.8 243.5C594.7 242.7 640.3 244.3 686 243.7C731.7 243 777.3 240 823 235.3C868.7 230.7 914.3 224.3 937.2 221.2L960 218L960 301L937.2 301C914.3 301 868.7 301 823 301C777.3 301 731.7 301 686 301C640.3 301 594.7 301 548.8 301C503 301 457 301 411.2 301C365.3 301 319.7 301 274 301C228.3 301 182.7 301 137 301C91.3 301 45.7 301 22.8 301L0 301Z" fill="#fb3374"></path><path d="M0 246L22.8 245.2C45.7 244.3 91.3 242.7 137 242.5C182.7 242.3 228.3 243.7 274 244.2C319.7 244.7 365.3 244.3 411.2 248.2C457 252 503 260 548.8 263.3C594.7 266.7 640.3 265.3 686 263.7C731.7 262 777.3 260 823 258C868.7 256 914.3 254 937.2 253L960 252L960 301L937.2 301C914.3 301 868.7 301 823 301C777.3 301 731.7 301 686 301C640.3 301 594.7 301 548.8 301C503 301 457 301 411.2 301C365.3 301 319.7 301 274 301C228.3 301 182.7 301 137 301C91.3 301 45.7 301 22.8 301L0 301Z" fill="#fd416e"></path><path d="M0 268L22.8 267.8C45.7 267.7 91.3 267.3 137 267.5C182.7 267.7 228.3 268.3 274 267.7C319.7 267 365.3 265 411.2 264.3C457 263.7 503 264.3 548.8 267.8C594.7 271.3 640.3 277.7 686 281.2C731.7 284.7 777.3 285.3 823 281.7C868.7 278 914.3 270 937.2 266L960 262L960 301L937.2 301C914.3 301 868.7 301 823 301C777.3 301 731.7 301 686 301C640.3 301 594.7 301 548.8 301C503 301 457 301 411.2 301C365.3 301 319.7 301 274 301C228.3 301 182.7 301 137 301C91.3 301 45.7 301 22.8 301L0 301Z" fill="#ff4d69"></path></svg>